<?xml version="1.0" standalone="no"?>
<!DOCTYPE svg PUBLIC "-//W3C//DTD SVG 20010904//EN"
 "http://www.w3.org/TR/2001/REC-SVG-20010904/DTD/svg10.dtd">
<svg version="1.0" xmlns="http://www.w3.org/2000/svg"
 width="1280.000000pt" height="1280.000000pt" viewBox="0 0 1280.000000 1280.000000"
 preserveAspectRatio="xMidYMid meet">

<g transform="translate(0.000000,1280.000000) scale(0.100000,-0.100000)"
fill="#000000" stroke="none">
<path d="M9164 10831 c-118 -47 -271 -160 -448 -331 -171 -166 -459 -558 -633
-865 -231 -406 -262 -471 -390 -810 -140 -369 -160 -429 -204 -613 -90 -374
-109 -496 -109 -676 1 -161 27 -220 102 -232 21 -4 38 -10 38 -15 0 -14 -115
-152 -179 -214 l-61 -59 0 60 c0 109 -48 139 -143 89 l-47 -25 0 30 c0 20 -8
34 -25 46 -35 23 -70 11 -99 -35 -13 -21 -31 -44 -38 -52 -8 -8 -54 -66 -104
-129 -120 -155 -242 -276 -344 -342 -85 -55 -182 -98 -221 -98 -18 0 -20 4
-15 28 8 32 87 171 126 222 47 62 90 140 90 164 0 30 -30 56 -64 56 -21 0 -45
-17 -100 -73 -39 -40 -103 -100 -143 -134 -80 -68 -252 -187 -260 -179 -3 3
17 40 44 83 109 170 122 219 64 243 -44 18 -61 3 -132 -116 -112 -187 -149
-270 -149 -333 0 -33 35 -61 75 -61 45 0 89 22 221 112 57 39 106 69 109 66 2
-2 -2 -28 -10 -58 -20 -73 -19 -93 6 -124 18 -22 28 -26 74 -26 114 0 236 45
376 140 85 58 228 201 343 343 33 40 44 47 75 47 38 0 114 30 143 57 17 15 18
13 18 -30 0 -117 68 -160 159 -103 98 63 276 266 412 472 19 28 67 78 107 113
81 70 267 276 380 424 43 55 81 96 88 93 7 -3 39 -8 71 -11 47 -6 61 -4 72 9
19 22 17 63 -3 85 -19 21 -15 30 46 131 12 19 61 100 110 179 48 80 88 155 88
168 0 42 -44 72 -84 57 -18 -7 -144 -162 -206 -254 -60 -89 -310 -425 -310
-417 0 3 25 50 56 103 57 99 217 417 336 669 36 77 126 262 200 410 130 263
218 445 318 659 39 84 210 503 250 616 35 98 80 295 80 351 0 70 -4 80 -37 98
-29 15 -69 12 -119 -8z m32 -138 c-3 -10 -16 -61 -30 -113 -28 -109 -66 -216
-159 -452 -95 -243 -140 -340 -454 -976 -91 -185 -183 -375 -205 -422 -185
-394 -333 -672 -530 -995 -130 -213 -146 -234 -210 -275 -106 -69 -115 -58
-104 139 9 165 25 256 98 551 50 207 79 295 180 565 139 370 235 569 456 945
91 154 271 410 422 599 118 148 320 328 466 416 65 40 78 43 70 18z"/>
<path d="M10626 10429 c-71 -56 -394 -486 -508 -677 -221 -370 -397 -702 -545
-1025 -138 -303 -322 -797 -377 -1013 -31 -121 -14 -180 50 -172 48 5 64 40
345 753 61 154 144 349 185 434 41 84 74 162 74 172 0 9 -7 24 -15 33 -8 8
-15 20 -15 27 0 12 61 129 130 249 21 36 91 160 156 275 145 260 194 336 338
528 138 184 163 214 170 207 12 -13 -38 -280 -89 -475 -54 -203 -219 -1024
-280 -1385 -9 -52 -22 -126 -30 -165 -7 -38 -19 -108 -24 -155 -20 -152 -18
-147 -59 -163 -20 -8 -93 -42 -162 -75 -69 -32 -168 -76 -220 -98 -52 -21
-178 -81 -280 -132 -131 -66 -222 -105 -310 -132 -241 -73 -489 -166 -975
-368 -488 -203 -637 -271 -994 -453 -502 -258 -638 -332 -941 -519 -74 -46
-193 -118 -265 -160 -342 -201 -670 -405 -865 -538 -318 -216 -361 -244 -367
-238 -9 9 233 842 374 1286 210 661 290 939 347 1195 77 350 98 544 62 584
-28 31 -87 28 -165 -9 -77 -37 -137 -79 -251 -179 -259 -225 -400 -391 -600
-702 -52 -79 -117 -180 -145 -224 -103 -159 -153 -242 -223 -372 -73 -135
-289 -568 -329 -658 -12 -28 -40 -93 -63 -145 -125 -288 -270 -668 -329 -862
-83 -273 -121 -531 -87 -595 20 -40 66 -73 118 -85 85 -19 353 44 496 116 63
32 284 169 484 299 48 31 89 53 91 49 2 -4 -9 -59 -24 -122 -30 -121 -173
-758 -233 -1040 -20 -91 -49 -277 -66 -414 -27 -226 -28 -252 -15 -273 18 -27
75 -32 95 -8 6 8 20 92 31 187 22 196 51 383 79 508 11 47 53 238 95 425 104
473 139 624 171 743 l27 103 351 233 c351 234 519 340 951 600 127 76 289 173
360 217 389 237 1071 594 1455 759 368 160 833 349 1070 437 140 52 188 65
241 67 54 2 78 9 131 38 72 40 105 50 378 120 107 27 256 67 330 88 182 52
176 51 173 15 -17 -213 -33 -495 -33 -591 0 -133 9 -154 63 -154 43 0 57 32
57 135 0 82 38 666 44 672 4 4 421 109 548 138 90 20 121 32 133 48 20 29 19
49 -6 76 -18 19 -28 22 -58 16 -36 -6 -551 -131 -583 -141 -14 -4 -18 1 -18
24 0 16 6 34 13 39 6 6 101 45 210 87 108 43 204 84 212 93 8 8 15 25 15 39 0
24 -31 64 -50 64 -9 0 -132 -46 -305 -115 -32 -13 -62 -22 -66 -20 -7 5 28
242 65 435 23 122 76 402 110 585 35 186 111 537 160 742 30 125 62 264 70
308 23 114 37 312 26 360 -15 65 -63 84 -114 44z m-5200 -2376 c-22 -190 -117
-598 -208 -893 -28 -91 -57 -187 -65 -215 -28 -94 -131 -424 -179 -570 -36
-113 -187 -623 -284 -962 l-104 -362 -95 -61 c-53 -34 -179 -115 -280 -180
-275 -178 -365 -223 -531 -265 -102 -27 -199 -32 -218 -13 -25 25 -9 142 53
388 87 344 337 963 595 1475 157 311 213 414 295 540 28 44 105 163 170 265
198 308 289 427 449 585 161 160 364 325 400 325 5 0 6 -25 2 -57z m4725 -325
c-6 -17 -24 -26 -77 -40 -38 -10 -73 -17 -79 -17 -11 1 145 79 157 79 4 0 4
-10 -1 -22z"/>
</g>
</svg>
